<?xml version="1.0" encoding="UTF-8" standalone="no"?>
<!-- Created with matplotlib (http://matplotlib.org/) -->

<svg
   height="72pt"
   version="1.1"
   viewBox="0 0 72 72"
   width="72pt"
   id="svg2"
   sodipodi:docname="forward.svg"
   inkscape:version="1.3 (0e150ed6c4, 2023-07-21)"
   xmlns:inkscape="http://www.inkscape.org/namespaces/inkscape"
   xmlns:sodipodi="http://sodipodi.sourceforge.net/DTD/sodipodi-0.dtd"
   xmlns="http://www.w3.org/2000/svg"
   xmlns:svg="http://www.w3.org/2000/svg">
  <sodipodi:namedview
     id="namedview2"
     pagecolor="#ffffff"
     bordercolor="#000000"
     borderopacity="0.25"
     inkscape:showpageshadow="2"
     inkscape:pageopacity="0.0"
     inkscape:pagecheckerboard="0"
     inkscape:deskcolor="#d1d1d1"
     inkscape:document-units="pt"
     inkscape:zoom="12.302083"
     inkscape:cx="47.959356"
     inkscape:cy="48"
     inkscape:window-width="2560"
     inkscape:window-height="1377"
     inkscape:window-x="1912"
     inkscape:window-y="-8"
     inkscape:window-maximized="1"
     inkscape:current-layer="svg2" />
  <defs
     id="defs1">
    <style
       type="text/css"
       id="style1">&#10;*{stroke-linecap:butt;stroke-linejoin:round;}&#10;  </style>
  </defs>
  <g
     id="figure_1">
    <g
       id="patch_1">
      <path
         d="M 0 72  L 72 72  L 72 0  L 0 0  z "
         style="fill:none;opacity:0;"
         id="path1" />
    </g>
    <g
       id="text_1">
      <path
         d="M 62.71125 37.44  C 62.71125 36.14375 62.2225 34.900625 61.30875 34.01875  L 36.605625 9.315625  C 35.691875 8.4125 34.438125 7.88125 33.1525 7.88125  C 31.866875 7.88125 30.645 8.4125 29.741875 9.315625  L 26.894375 12.163125  C 25.980625 13.034375 25.449375 14.288125 25.449375 15.584375  C 25.449375 16.87 25.980625 18.12375 26.894375 18.995  L 38.008125 30.15125  L 11.296875 30.15125  C 8.56625 30.15125 6.855625 32.425 6.855625 35.006875  L 6.855625 39.8625  C 6.855625 42.444375 8.56625 44.72875 11.296875 44.72875  L 38.008125 44.72875  L 26.894375 55.8425  C 25.980625 56.75625 25.449375 58.01 25.449375 59.295625  C 25.449375 60.58125 25.980625 61.835 26.894375 62.74875  L 29.741875 65.59625  C 30.645 66.4675 31.866875 66.99875 33.1525 66.99875  C 34.438125 66.99875 35.691875 66.4675 36.605625 65.59625  L 61.30875 40.893125  C 62.2225 39.979375 62.71125 38.725625 62.71125 37.44  "
         id="path2" />
    </g>
  </g>
</svg>
